<svg xmlns="http://www.w3.org/2000/svg" viewBox="0 0 512 512">
  <defs>
    <linearGradient id="sky" x1="0" y1="0" x2="0" y2="1">
      <stop offset="0" stop-color="#05021a"/>
      <stop offset=".6" stop-color="#3a1160"/>
      <stop offset="1" stop-color="#9c2d6c"/>
    </linearGradient>
    <linearGradient id="sun" x1="0" y1="0" x2="0" y2="1">
      <stop offset="0" stop-color="#fff27a"/>
      <stop offset=".5" stop-color="#ffa043"/>
      <stop offset="1" stop-color="#ff2e88"/>
    </linearGradient>
  </defs>
  <rect width="512" height="512" rx="112" fill="url(#sky)"/>
  <circle cx="256" cy="250" r="120" fill="url(#sun)"/>
  <g fill="#3a1160">
    <rect x="120" y="262" width="272" height="8"/>
    <rect x="120" y="290" width="272" height="12"/>
    <rect x="120" y="322" width="272" height="16"/>
  </g>
  <path d="M0 340h512v172H0z" fill="#150b28"/>
  <path d="M236 340h40l150 172H86z" fill="#2c2842"/>
  <path d="M236 340h4L96 512H86zM276 340h-4l144 172h10z" fill="#39f3ff"/>
  <path d="M253 350h6l3 30h-12zM249 400h14l4 50h-22z" fill="#dcd4ff"/>
</svg>
